<svg xmlns="http://www.w3.org/2000/svg" x="0px" y="0px" width="100" height="100" viewBox="0 0 48 48">
<path fill="#ef4823" fill-rule="evenodd" d="M12.269,27.132c0.844,0.343,1.651,1.621,2.269,2.29	c1.717,1.858,3.898,3.818,5.302,5.89c-1.837,0.962-4.274,1.05-6.282,1.536c-0.228,0.055-0.464,0.111-0.696,0.075	c-0.468-0.072-3.927-3.108-3.845-3.283C9.281,33.073,11.811,27.017,12.269,27.132z M32.629,11.092	c0.066-0.004,0.131-0.003,0.194,0.003c0.896,0.096,3.048,1.276,3.321,2.115c0.283,0.868-0.444,2.312-0.646,3.166	c-0.112,0.472-0.186,1.704-0.518,2.061c-0.397,0.428-0.546,0.158-1.098-0.186c-0.562-0.351-6.721-4.397-6.761-4.35	c0.633-0.745,2.161-1.206,3.056-1.66C30.86,11.894,31.85,11.141,32.629,11.092z M11.653,11.17c0.249-0.022,0.498-0.01,0.735,0.066	c0.281,0.091,0.526,0.267,0.765,0.44c0.629,0.454,1.257,0.909,1.886,1.363c0.291,0.21,0.589,0.428,0.784,0.729	c0.09,0.139,0.158,0.296,0.279,0.411c0.322,0.307,1.296,0.583,1.737,0.882c6.829,4.632,13.621,9.316,20.541,13.809	c1.336,0.867-0.145,2.66-0.53,3.754c-0.288,0.819-0.857,3.922-1.629,4.32c-0.211,0.109-0.46,0.107-0.698,0.102	c-1.526-0.03-2.984,0.081-4.12-1.122c-4.004-4.238-8.008-8.475-12.016-12.708c0-0.562-2.148-2.268-2.573-2.717	c-0.911-0.962-1.823-1.925-2.734-2.887c-1.584-1.673-3.862-3.308-4.956-5.356c0.573-0.516,1.368-0.865,2.128-1.026	C11.384,11.205,11.518,11.183,11.653,11.17z M14.497,5.995C14.444,5.743,6.884,6,6,6C5.472,6.264,5,6.57,5,7.625V14.5	c0,0,0,2.11,0,2.125c0,0.679,0.634,1.757,0.866,2.388c0.043,0.117,0.087,0.24,0.069,0.364c-0.12,0.824-1.311,1.246-0.922,2.26	c0.328,0.855,1.594,1.35,0.789,2.461c-0.184,0.254-0.456,0.439-0.616,0.709c-0.191,0.321-0.197,0.715-0.198,1.089	c-0.002,0.741-0.15,1.578,0.013,2.301c0.12,0.531,0.478,1.043,1.004,1.186C6.173,29.428,6,33.044,6,33.5	c-0.003,0.386-0.844,1.207-0.948,1.771c-0.206,1.123-0.771,4.666,0.105,5.595c0.188,0.2,0.451,0.311,0.709,0.406	c2.652,0.98,5.573,0.89,8.384,0.584c0.74-0.08,1.605-0.264,1.905-0.945c0.996,0.91,2.561,0.967,3.673,0.24	c0.334,0.411,0.707,0.993,1.121,1.318c0.238,0.187,0.576,0.281,0.852,0.151c1.105-0.516,2.053,0.134,3.218,0.02	c0.864-0.084,1.65-0.514,2.508-0.616c0.883-0.104,1.808,0.072,2.698,0.066c1.203-0.008,2.198-0.732,3.295-0.759	c0.33-0.008,0.642,0.136,0.95,0.257c1.245,0.488,3.08,0.86,4.335,0.21c0.382-0.198,0.295-0.515,0.732-0.577	c0.326-0.047,0.915,0.327,1.234,0.418c0.751,0.213,1.804,0.48,2.174-0.456c0.099-0.25,0.087-0.529,0.076-0.798	c-0.1-2.451,0.154-4.871,0.183-7.317c0.018-1.487,0.007-2.975-0.075-4.46c-0.07-1.258,0.005-2.298-1.505-1.902	c0.95-1.419,0.555-4.521-0.239-5.933c-0.219-0.389-0.347-0.687-0.173-1.1C41.291,19.483,42,19.157,42,19c0,0,0-0.75,0-0.75	c1.192-0.695,1.071-1.387,1.056-2.763c-0.017-1.581-0.253-3.16-0.701-4.677c-0.194-0.657-0.412-1.423-0.012-1.979	c0.134-0.187,0.326-0.326,0.463-0.511c0.48-0.65,0.081-1.642-0.604-2.071c-1.26-0.789-3.172-1.132-4.473-0.272	c-0.98-1.556-4.597-1.161-6.186-1.136c-1.23,0.02-1.209,0.673-1.848,1.439c-0.786,0.942-2.366-0.305-3.225-0.487	c0.194-0.068,0.215-0.361,0.083-0.519c-0.132-0.158-0.348-0.213-0.55-0.252c-1.863-0.364-3.844-0.193-5.54,0.707	C19.422,6.282,14.854,8.481,14.497,5.995z" clip-rule="evenodd"></path><path fill="#010101" d="M21.523,43.179c-0.303,0-0.619-0.109-0.883-0.316c-0.35-0.275-0.654-0.679-0.922-1.035	c-0.007-0.01-0.015-0.02-0.022-0.029c-1.108,0.532-2.428,0.462-3.432-0.176c-0.503,0.503-1.287,0.657-1.96,0.731	c-2.659,0.29-5.758,0.441-8.612-0.613c-0.295-0.108-0.633-0.248-0.9-0.531c-0.977-1.037-0.565-4.222-0.232-6.028	c0.072-0.393,0.343-0.785,0.605-1.164c0.125-0.182,0.313-0.454,0.337-0.552C5.5,33.392,5.509,33.11,5.521,32.741	c0.023-0.688,0.08-2.374,0.047-2.993c-0.513-0.256-0.906-0.783-1.054-1.442c-0.127-0.563-0.091-1.148-0.056-1.715	c0.015-0.236,0.029-0.471,0.03-0.695C4.489,25.518,4.491,25,4.756,24.553c0.121-0.205,0.277-0.36,0.414-0.497	c0.08-0.08,0.162-0.159,0.228-0.251c0.286-0.394,0.213-0.548-0.252-1.091c-0.217-0.253-0.462-0.539-0.599-0.897	c-0.337-0.879,0.153-1.464,0.51-1.892c0.183-0.22,0.356-0.427,0.384-0.62c-0.003-0.009-0.029-0.08-0.043-0.119	c-0.066-0.18-0.168-0.399-0.277-0.636C4.829,17.921,4.5,17.208,4.5,16.625v-9c0-1.324,0.659-1.764,1.276-2.072	C5.846,5.518,5.922,5.5,6,5.5c0.198,0,0.731-0.013,1.44-0.03c7.419-0.182,7.432-0.124,7.546,0.423	c0.002,0.011,0.004,0.021,0.006,0.031c0.056,0.39,0.233,0.526,0.381,0.602c0.885,0.451,3.139-0.325,4.854-1.238	c1.691-0.896,3.774-1.168,5.872-0.756c0.188,0.036,0.58,0.112,0.838,0.423c0.125,0.149,0.194,0.342,0.199,0.538	c0.137,0.058,0.278,0.122,0.422,0.188c0.813,0.372,1.461,0.631,1.751,0.278c0.153-0.183,0.263-0.358,0.364-0.518	c0.336-0.532,0.684-1.082,1.861-1.101c0.21-0.003,0.458-0.014,0.729-0.024c1.776-0.072,4.384-0.178,5.585,1.019	c1.49-0.712,3.39-0.277,4.617,0.49c0.514,0.321,0.903,0.889,1.016,1.479c0.092,0.482-0.006,0.948-0.274,1.313	c-0.083,0.111-0.179,0.21-0.277,0.308c-0.064,0.063-0.13,0.125-0.183,0.198c-0.263,0.366-0.069,1.021,0.086,1.546	c0.461,1.56,0.704,3.179,0.721,4.813l0.005,0.324c0.021,1.134,0.036,1.974-1.061,2.72V19c0,0.349-0.281,0.536-0.606,0.753	c-0.087,0.058-0.232,0.154-0.271,0.195c-0.027,0.097-0.017,0.204,0.195,0.581c0.702,1.248,1.175,3.839,0.615,5.61	c0.213,0.03,0.398,0.104,0.557,0.221c0.549,0.402,0.584,1.151,0.623,1.943l0.014,0.277c0.073,1.316,0.098,2.744,0.076,4.494	c-0.012,0.956-0.057,1.908-0.103,2.859c-0.069,1.453-0.141,2.955-0.081,4.432c0.013,0.309,0.027,0.654-0.11,1.002	c-0.548,1.388-2.108,0.941-2.775,0.752c-0.129-0.036-0.3-0.111-0.481-0.194c-0.159-0.072-0.455-0.208-0.557-0.208	c-0.152,0.193-0.284,0.382-0.562,0.525c-1.705,0.883-4.063,0.08-4.747-0.188l-0.118-0.047c-0.231-0.093-0.425-0.17-0.638-0.176	c-0.449,0.011-0.909,0.17-1.396,0.339c-0.591,0.204-1.202,0.415-1.908,0.42c-0.368,0.003-0.731-0.023-1.101-0.051	c-0.543-0.04-1.054-0.078-1.542-0.02c-0.37,0.044-0.737,0.161-1.125,0.284c-0.44,0.141-0.896,0.285-1.392,0.334	c-0.535,0.053-1.027-0.036-1.46-0.114c-0.602-0.108-1.077-0.195-1.594,0.049C21.861,43.144,21.694,43.179,21.523,43.179z M19.827,40.651c0.146,0,0.29,0.063,0.388,0.184c0.097,0.12,0.198,0.253,0.301,0.391c0.243,0.322,0.495,0.656,0.741,0.851	c0.11,0.085,0.256,0.127,0.332,0.091c0.804-0.376,1.542-0.244,2.194-0.127c0.405,0.073,0.786,0.142,1.187,0.103	c0.391-0.037,0.777-0.16,1.186-0.29c0.416-0.133,0.846-0.27,1.311-0.324c0.582-0.07,1.167-0.026,1.732,0.015	c0.343,0.024,0.681,0.04,1.021,0.048c0.542-0.004,1.05-0.18,1.587-0.365s1.093-0.378,1.698-0.394	c0.425,0.004,0.733,0.127,1.033,0.247l0.111,0.044c1.203,0.473,2.865,0.783,3.923,0.231c0.057-0.029,0.077-0.056,0.137-0.142	c0.11-0.157,0.295-0.421,0.754-0.486c0.359-0.051,0.737,0.122,1.104,0.29c0.127,0.059,0.246,0.116,0.337,0.142	c1.018,0.29,1.413,0.251,1.573-0.158c0.06-0.15,0.051-0.363,0.042-0.588c-0.062-1.526,0.011-3.051,0.081-4.524	c0.045-0.94,0.09-1.881,0.102-2.824c0.021-1.728-0.002-3.134-0.074-4.427l-0.015-0.285c-0.022-0.475-0.051-1.064-0.216-1.186	c-0.034-0.025-0.181-0.097-0.649,0.024c-0.202,0.056-0.414-0.024-0.534-0.193c-0.121-0.169-0.124-0.396-0.008-0.568	c0.835-1.247,0.44-4.165-0.259-5.409c-0.245-0.436-0.462-0.913-0.198-1.54c0.098-0.231,0.326-0.383,0.59-0.559	c0.056-0.038,0.113-0.073,0.161-0.107V18.25c0-0.178,0.094-0.342,0.248-0.432c0.84-0.49,0.833-0.869,0.813-1.994l-0.005-0.331	c-0.017-1.543-0.246-3.07-0.68-4.541c-0.206-0.695-0.488-1.648,0.061-2.413c0.085-0.118,0.187-0.222,0.29-0.324	c0.063-0.062,0.126-0.122,0.178-0.192c0.13-0.176,0.124-0.386,0.096-0.531c-0.061-0.321-0.282-0.643-0.563-0.818	c-1.111-0.695-2.819-1.015-3.933-0.279c-0.111,0.074-0.25,0.103-0.381,0.071c-0.131-0.028-0.246-0.108-0.318-0.222	c-0.693-1.102-3.494-0.986-5-0.928c-0.281,0.012-0.536,0.021-0.754,0.025c-0.636,0.01-0.736,0.167-1.031,0.635	C30.397,6.168,30.263,6.38,30.079,6.6c-0.806,0.967-2.088,0.378-2.936-0.01c-0.301-0.138-0.585-0.268-0.778-0.309	c-0.22-0.047-0.381-0.234-0.395-0.458c-0.006-0.102,0.018-0.199,0.066-0.282c-0.034-0.009-0.076-0.019-0.128-0.028	c-1.873-0.366-3.722-0.132-5.211,0.657c-0.943,0.501-4.146,2.072-5.777,1.247c-0.411-0.209-0.696-0.551-0.839-1.001	C13.023,6.334,9.189,6.428,7.464,6.47C6.859,6.484,6.379,6.496,6.122,6.499C5.734,6.702,5.5,6.908,5.5,7.625v9	c0,0.363,0.292,0.997,0.527,1.506c0.122,0.264,0.233,0.509,0.308,0.71c0.052,0.143,0.131,0.357,0.094,0.608	c-0.068,0.473-0.354,0.814-0.606,1.116c-0.348,0.417-0.46,0.59-0.344,0.894c0.075,0.196,0.245,0.395,0.425,0.604	c0.429,0.501,1.077,1.258,0.302,2.328c-0.097,0.134-0.213,0.253-0.33,0.37c-0.104,0.105-0.204,0.204-0.261,0.301	c-0.126,0.213-0.127,0.544-0.128,0.835c0,0.244-0.016,0.498-0.032,0.755c-0.031,0.496-0.063,1.01,0.033,1.434	c0.076,0.339,0.305,0.722,0.646,0.813c0.463,0.13,0.511,0.144,0.386,3.875C6.509,33.128,6.5,33.396,6.5,33.5	c-0.002,0.347-0.238,0.688-0.512,1.085c-0.173,0.251-0.411,0.595-0.445,0.777c-0.47,2.554-0.479,4.676-0.023,5.161	c0.118,0.125,0.329,0.209,0.518,0.278c2.66,0.984,5.617,0.835,8.157,0.558c0.548-0.06,1.3-0.192,1.501-0.649	c0.065-0.147,0.197-0.255,0.354-0.288c0.156-0.033,0.321,0.012,0.44,0.12c0.797,0.729,2.114,0.81,3.062,0.191	C19.638,40.678,19.732,40.651,19.827,40.651z M35.662,37.551c-0.052,0-0.102-0.001-0.149-0.002l-0.44-0.007	c-1.407-0.016-2.862-0.032-4.033-1.271c-4.004-4.237-8.008-8.475-12.017-12.708c-0.088-0.093-0.137-0.216-0.137-0.344	c-0.103-0.281-1.281-1.327-1.784-1.773c-0.293-0.26-0.534-0.476-0.651-0.6l-2.734-2.888c-0.48-0.507-1.022-1.007-1.596-1.537	c-1.3-1.2-2.644-2.44-3.438-3.927c-0.108-0.202-0.064-0.453,0.106-0.607c0.595-0.535,1.455-0.952,2.359-1.144	c0.153-0.031,0.306-0.057,0.46-0.07c0.347-0.032,0.653-0.002,0.933,0.089c0.356,0.115,0.646,0.324,0.903,0.51l1.887,1.363	c0.294,0.212,0.661,0.477,0.911,0.863l0.09,0.148c0.042,0.073,0.082,0.142,0.116,0.174c0.11,0.104,0.496,0.269,0.778,0.389	c0.322,0.138,0.655,0.279,0.893,0.44l4.441,3.021c5.249,3.573,10.677,7.269,16.091,10.783c1.395,0.905,0.588,2.478,0.054,3.518	c-0.152,0.298-0.298,0.577-0.384,0.821c-0.07,0.198-0.156,0.538-0.259,0.94c-0.474,1.846-0.894,3.287-1.611,3.658	C36.181,37.53,35.897,37.551,35.662,37.551z M19.847,22.978c3.976,4.199,7.948,8.402,11.919,12.605	c0.88,0.932,2.009,0.944,3.317,0.959l0.45,0.007c0.156,0.003,0.354,0.008,0.458-0.047c0.386-0.229,0.906-2.255,1.102-3.018	c0.113-0.438,0.208-0.808,0.285-1.024c0.104-0.294,0.266-0.61,0.438-0.946c0.642-1.251,0.836-1.868,0.291-2.223	c-5.423-3.521-10.855-7.219-16.109-10.795l-4.44-3.019c-0.158-0.107-0.445-0.229-0.723-0.348c-0.429-0.183-0.834-0.355-1.078-0.587	c-0.137-0.132-0.222-0.277-0.29-0.395l-0.064-0.106c-0.148-0.229-0.407-0.416-0.657-0.597l-1.887-1.363	c-0.215-0.155-0.418-0.302-0.626-0.369c-0.149-0.049-0.324-0.064-0.536-0.044c0,0-0.001,0-0.001,0	c-0.115,0.01-0.229,0.029-0.342,0.053c-0.584,0.124-1.142,0.359-1.581,0.662c0.739,1.19,1.9,2.263,3.026,3.303	c0.586,0.541,1.14,1.053,1.644,1.584l2.734,2.888c0.105,0.111,0.325,0.305,0.589,0.539C19.025,21.814,19.686,22.469,19.847,22.978z M13.017,37.435c-0.076,0-0.153-0.006-0.232-0.018c-0.721-0.11-3.98-3.09-4.2-3.5c-0.074-0.14-0.088-0.346-0.021-0.488	c0.041-0.089,0.14-0.316,0.278-0.636c2.753-6.345,3.019-6.274,3.548-6.146c0.023,0.006,0.045,0.014,0.067,0.022	c0.732,0.297,1.364,1.086,1.921,1.781c0.188,0.234,0.364,0.456,0.527,0.633c0.496,0.536,1.031,1.081,1.574,1.635	c1.354,1.38,2.753,2.806,3.775,4.313c0.08,0.117,0.105,0.264,0.071,0.402c-0.035,0.138-0.127,0.255-0.253,0.321	c-1.311,0.686-2.866,0.944-4.371,1.194c-0.715,0.118-1.39,0.23-2.025,0.385C13.487,37.38,13.262,37.435,13.017,37.435z M9.588,33.585c0.623,0.668,2.953,2.677,3.402,2.856c0.087,0.012,0.271-0.036,0.45-0.079c0.671-0.163,1.396-0.283,2.097-0.4	c1.221-0.202,2.478-0.411,3.547-0.851c-0.936-1.264-2.145-2.496-3.319-3.692c-0.551-0.562-1.093-1.114-1.595-1.657	c-0.177-0.192-0.37-0.432-0.573-0.687c-0.377-0.471-0.831-1.038-1.254-1.333c-0.317,0.476-1.027,1.861-2.583,5.449	C9.693,33.344,9.636,33.477,9.588,33.585z M34.619,19.158c-0.296,0-0.549-0.176-0.745-0.313c-0.074-0.052-0.158-0.109-0.256-0.171	c-0.177-0.11-0.91-0.588-1.833-1.189c-1.679-1.094-4.464-2.908-4.842-3.118c-0.051-0.02-0.1-0.048-0.145-0.085	c-0.21-0.179-0.237-0.493-0.059-0.704c0.024-0.028,0.046-0.054,0.068-0.076c0.542-0.583,1.473-0.979,2.298-1.329	c0.308-0.131,0.602-0.255,0.846-0.379c0.181-0.092,0.385-0.214,0.601-0.343c0.638-0.382,1.362-0.814,2.045-0.858	c0,0,0.001,0,0.002,0c0.094-0.007,0.187-0.004,0.277,0.006c0.977,0.104,3.376,1.333,3.742,2.456c0.255,0.781-0.084,1.769-0.384,2.64	c-0.101,0.294-0.196,0.567-0.251,0.797c-0.028,0.121-0.053,0.297-0.083,0.494c-0.119,0.805-0.236,1.448-0.555,1.792	C35.084,19.061,34.839,19.158,34.619,19.158z M27.956,13.846c0.756,0.444,2.056,1.291,4.375,2.802	c0.915,0.597,1.641,1.069,1.817,1.18c0.113,0.07,0.211,0.138,0.297,0.198c0.047,0.032,0.101,0.07,0.144,0.098	c0.008-0.007,0.016-0.016,0.025-0.025c0.136-0.159,0.25-0.93,0.299-1.259c0.034-0.23,0.065-0.437,0.099-0.578	c0.061-0.257,0.166-0.563,0.279-0.893c0.236-0.687,0.53-1.54,0.379-2.003c-0.189-0.579-2.113-1.688-2.899-1.772	c-0.036-0.003-0.072-0.004-0.11-0.002c-0.441,0.028-1.081,0.411-1.595,0.719c-0.238,0.142-0.462,0.275-0.662,0.377	c-0.262,0.133-0.576,0.267-0.907,0.407C28.966,13.319,28.386,13.565,27.956,13.846z"></path>
</svg>
